# xmcd
#
# Track frame offsets:
#	150
#	16099
#	28645
#	42697
#	56122
#	71154
#	88309
#	107890
#	121739
#	137727
#	150833
#	165084
#	178786
#	194834
#	210540
#	224927
#	240617
#
# Disc length: 3451 seconds
#
# Revision: 1
# Processed by: cddbd v1.5.2PL0 Copyright (c) Steve Scherf et al.
# Submitted via: audiograbber 1.83.01
#
DISCID=fa0d7911
DTITLE=TRUCK STOP - STAR EDITION
DYEAR=2007
DGENRE=Country
TTITLE0=Ich möcht´ so gern Dave Dudley hör´n
TTITLE1=Der wilde, wilde Westen
TTITLE2=Das gibt´s doch nur in Dallas
TTITLE3=Take it easy, altes Haus
TTITLE4=Easy Rider
TTITLE5=Old Texas Town, die Westernstadt
TTITLE6=Nein danke, ich rauch´ nicht mehr
TTITLE7=Asphaltfieber
TTITLE8=Kopf oder Zahl (Geh´n wir nun zu dir - oder mir)
TTITLE9=Die Frau mit dem Gurt
TTITLE10=Nashville Tennessee
TTITLE11=Hillybilly, Country Lilly
TTITLE12=Der Roadie von der Country Band
TTITLE13=Ich rauch´ zuviel
TTITLE14=Der König von der Autobahn
TTITLE15=Ich steh´ auf Jeans und Country-Music
TTITLE16=Sie will zurück nach München
EXTD=
EXTT0=
EXTT1=
EXTT2=
EXTT3=
EXTT4=
EXTT5=
EXTT6=
EXTT7=
EXTT8=
EXTT9=
EXTT10=
EXTT11=
EXTT12=
EXTT13=
EXTT14=
EXTT15=
EXTT16=
PLAYORDER=
